<mxfile host="app.diagrams.net" modified="2024-07-08T16:06:07.366Z" agent="Mozilla/5.0 (Windows NT 10.0; Win64; x64; rv:127.0) Gecko/20100101 Firefox/127.0" etag="QimHu34wdJQBsundw-y6" version="24.6.4" type="device">
  <diagram name="Pagina-1" id="V_HNO9k4999z6F_fTRKg">
    <mxGraphModel dx="1750" dy="2052" grid="1" gridSize="10" guides="1" tooltips="1" connect="1" arrows="1" fold="1" page="1" pageScale="1" pageWidth="827" pageHeight="1169" math="0" shadow="0">
      <root>
        <mxCell id="0" />
        <mxCell id="1" parent="0" />
        <mxCell id="HBmwAiEKgiXEF_s0nJef-17" value="Backend" style="swimlane;whiteSpace=wrap;startSize=40;fillColor=#f8cecc;strokeColor=#b85450;" vertex="1" parent="1">
          <mxGeometry x="591" y="120" width="490" height="380" as="geometry" />
        </mxCell>
        <mxCell id="HBmwAiEKgiXEF_s0nJef-42" value="GenerationController" style="swimlane;whiteSpace=wrap;html=1;fillColor=#f28c84;strokeColor=#b85450;startSize=23;" vertex="1" parent="HBmwAiEKgiXEF_s0nJef-17">
          <mxGeometry y="40" width="240" height="340" as="geometry">
            <mxRectangle y="40" width="150" height="30" as="alternateBounds" />
          </mxGeometry>
        </mxCell>
        <mxCell id="HBmwAiEKgiXEF_s0nJef-19" value="generateSystem" style="rounded=1;glass=0;shadow=0;" vertex="1" parent="HBmwAiEKgiXEF_s0nJef-42">
          <mxGeometry x="29" y="70" width="160" height="130" as="geometry" />
        </mxCell>
        <mxCell id="HBmwAiEKgiXEF_s0nJef-112" style="edgeStyle=orthogonalEdgeStyle;rounded=0;orthogonalLoop=1;jettySize=auto;html=1;strokeColor=#ff0000;" edge="1" parent="HBmwAiEKgiXEF_s0nJef-42" target="HBmwAiEKgiXEF_s0nJef-40">
          <mxGeometry relative="1" as="geometry">
            <mxPoint x="189" y="160" as="sourcePoint" />
            <mxPoint x="278.72" y="102.58000000000001" as="targetPoint" />
            <Array as="points">
              <mxPoint x="259" y="160" />
              <mxPoint x="259" y="103" />
            </Array>
          </mxGeometry>
        </mxCell>
        <mxCell id="HBmwAiEKgiXEF_s0nJef-43" value="db_handler" style="swimlane;whiteSpace=wrap;html=1;fillColor=#f28c84;strokeColor=#b85450;" vertex="1" parent="HBmwAiEKgiXEF_s0nJef-17">
          <mxGeometry x="240" y="40" width="250" height="220" as="geometry" />
        </mxCell>
        <mxCell id="HBmwAiEKgiXEF_s0nJef-40" value="updateSystem" style="rounded=1;" vertex="1" parent="HBmwAiEKgiXEF_s0nJef-43">
          <mxGeometry x="49" y="75" width="160" height="40" as="geometry" />
        </mxCell>
        <mxCell id="HBmwAiEKgiXEF_s0nJef-109" value="updateSystemStatus" style="rounded=1;" vertex="1" parent="HBmwAiEKgiXEF_s0nJef-43">
          <mxGeometry x="49" y="130" width="160" height="40" as="geometry" />
        </mxCell>
        <mxCell id="HBmwAiEKgiXEF_s0nJef-44" value="" style="edgeStyle=orthogonalEdgeStyle;rounded=0;orthogonalLoop=1;jettySize=auto;html=1;strokeColor=#ff0000;exitX=1.001;exitY=0.158;exitDx=0;exitDy=0;exitPerimeter=0;entryX=-0.005;entryY=0.38;entryDx=0;entryDy=0;entryPerimeter=0;" edge="1" parent="HBmwAiEKgiXEF_s0nJef-17" source="HBmwAiEKgiXEF_s0nJef-19" target="HBmwAiEKgiXEF_s0nJef-40">
          <mxGeometry relative="1" as="geometry">
            <mxPoint x="200" y="135" as="sourcePoint" />
            <mxPoint x="279" y="130" as="targetPoint" />
            <Array as="points">
              <mxPoint x="279" y="131" />
            </Array>
          </mxGeometry>
        </mxCell>
        <mxCell id="HBmwAiEKgiXEF_s0nJef-57" value="api_handler_bridge" style="swimlane;whiteSpace=wrap;html=1;fillColor=#f28c84;strokeColor=#B85450;" vertex="1" parent="HBmwAiEKgiXEF_s0nJef-17">
          <mxGeometry x="240" y="260" width="250" height="120" as="geometry" />
        </mxCell>
        <mxCell id="HBmwAiEKgiXEF_s0nJef-58" value="assistant_call" style="rounded=1;" vertex="1" parent="HBmwAiEKgiXEF_s0nJef-57">
          <mxGeometry x="49" y="50" width="160" height="40" as="geometry" />
        </mxCell>
        <mxCell id="HBmwAiEKgiXEF_s0nJef-69" style="edgeStyle=orthogonalEdgeStyle;rounded=0;orthogonalLoop=1;jettySize=auto;html=1;entryX=0;entryY=0.5;entryDx=0;entryDy=0;startArrow=classic;startFill=1;strokeColor=#ff0000;exitX=1.004;exitY=0.534;exitDx=0;exitDy=0;exitPerimeter=0;" edge="1" parent="HBmwAiEKgiXEF_s0nJef-17" source="HBmwAiEKgiXEF_s0nJef-19" target="HBmwAiEKgiXEF_s0nJef-58">
          <mxGeometry relative="1" as="geometry">
            <mxPoint x="219" y="160" as="sourcePoint" />
            <Array as="points">
              <mxPoint x="209" y="179" />
              <mxPoint x="209" y="330" />
            </Array>
          </mxGeometry>
        </mxCell>
        <mxCell id="HBmwAiEKgiXEF_s0nJef-111" style="edgeStyle=orthogonalEdgeStyle;rounded=0;orthogonalLoop=1;jettySize=auto;html=1;entryX=0;entryY=0.5;entryDx=0;entryDy=0;strokeColor=none;" edge="1" parent="HBmwAiEKgiXEF_s0nJef-17" target="HBmwAiEKgiXEF_s0nJef-109">
          <mxGeometry relative="1" as="geometry">
            <mxPoint x="200" y="190" as="sourcePoint" />
            <Array as="points">
              <mxPoint x="200" y="190" />
            </Array>
          </mxGeometry>
        </mxCell>
        <mxCell id="HBmwAiEKgiXEF_s0nJef-119" style="edgeStyle=orthogonalEdgeStyle;rounded=0;orthogonalLoop=1;jettySize=auto;html=1;entryX=0;entryY=0.5;entryDx=0;entryDy=0;strokeColor=#ff0000;exitX=1.002;exitY=0.846;exitDx=0;exitDy=0;exitPerimeter=0;" edge="1" parent="HBmwAiEKgiXEF_s0nJef-17" source="HBmwAiEKgiXEF_s0nJef-19" target="HBmwAiEKgiXEF_s0nJef-109">
          <mxGeometry relative="1" as="geometry">
            <mxPoint x="189" y="210" as="sourcePoint" />
            <mxPoint x="290" y="155" as="targetPoint" />
            <Array as="points">
              <mxPoint x="269" y="220" />
              <mxPoint x="269" y="190" />
            </Array>
          </mxGeometry>
        </mxCell>
        <mxCell id="HBmwAiEKgiXEF_s0nJef-27" value="" style="ellipse;shape=startState;fillColor=#FFFFFF;strokeColor=#ff0000;" vertex="1" parent="1">
          <mxGeometry x="476.44" y="280" width="30" height="30" as="geometry" />
        </mxCell>
        <mxCell id="HBmwAiEKgiXEF_s0nJef-28" value="" style="edgeStyle=elbowEdgeStyle;elbow=horizontal;verticalAlign=bottom;endArrow=classic;endSize=8;strokeColor=#FF0000;endFill=1;rounded=0;entryX=0;entryY=0.5;entryDx=0;entryDy=0;exitX=0.872;exitY=0.492;exitDx=0;exitDy=0;exitPerimeter=0;" edge="1" parent="1" source="HBmwAiEKgiXEF_s0nJef-27" target="HBmwAiEKgiXEF_s0nJef-19">
          <mxGeometry x="1540" y="160" as="geometry">
            <mxPoint x="200" y="400" as="targetPoint" />
          </mxGeometry>
        </mxCell>
        <mxCell id="HBmwAiEKgiXEF_s0nJef-29" value="Generate Container Design" style="text;html=1;align=center;verticalAlign=middle;whiteSpace=wrap;rounded=0;" vertex="1" parent="1">
          <mxGeometry x="414" y="260" width="154.87" height="20" as="geometry" />
        </mxCell>
        <mxCell id="HBmwAiEKgiXEF_s0nJef-45" value="Api Handler" style="swimlane;whiteSpace=wrap;startSize=40;fillColor=#fff2cc;strokeColor=#d6b656;" vertex="1" parent="1">
          <mxGeometry x="1280" y="120" width="720" height="540" as="geometry" />
        </mxCell>
        <mxCell id="HBmwAiEKgiXEF_s0nJef-46" value="InternalController" style="swimlane;whiteSpace=wrap;html=1;fillColor=#ffda6a;strokeColor=#d6b656;" vertex="1" parent="HBmwAiEKgiXEF_s0nJef-45">
          <mxGeometry y="40" width="240" height="500" as="geometry" />
        </mxCell>
        <mxCell id="HBmwAiEKgiXEF_s0nJef-47" value="interrogate" style="rounded=1;glass=0;shadow=0;" vertex="1" parent="HBmwAiEKgiXEF_s0nJef-46">
          <mxGeometry x="40" y="180" width="160" height="160" as="geometry" />
        </mxCell>
        <mxCell id="HBmwAiEKgiXEF_s0nJef-48" value="assistantOrchestrator" style="swimlane;whiteSpace=wrap;html=1;startSize=23;fillColor=#ffda6a;strokeColor=#d6b656;" vertex="1" parent="HBmwAiEKgiXEF_s0nJef-45">
          <mxGeometry x="240" y="40" width="240" height="200" as="geometry" />
        </mxCell>
        <mxCell id="HBmwAiEKgiXEF_s0nJef-49" value="assistantCreation" style="rounded=1;" vertex="1" parent="HBmwAiEKgiXEF_s0nJef-48">
          <mxGeometry x="40" y="60" width="160" height="100" as="geometry" />
        </mxCell>
        <mxCell id="HBmwAiEKgiXEF_s0nJef-50" value="" style="edgeStyle=orthogonalEdgeStyle;rounded=0;orthogonalLoop=1;jettySize=auto;html=1;startArrow=classic;startFill=1;entryX=0;entryY=0.5;entryDx=0;entryDy=0;strokeColor=#ff0000;" edge="1" parent="HBmwAiEKgiXEF_s0nJef-45" source="HBmwAiEKgiXEF_s0nJef-47" target="HBmwAiEKgiXEF_s0nJef-49">
          <mxGeometry relative="1" as="geometry">
            <Array as="points">
              <mxPoint x="120" y="150" />
            </Array>
          </mxGeometry>
        </mxCell>
        <mxCell id="HBmwAiEKgiXEF_s0nJef-70" value="assistantFactory" style="swimlane;whiteSpace=wrap;html=1;startSize=23;fillColor=#ffda6a;strokeColor=#d6b656;" vertex="1" parent="HBmwAiEKgiXEF_s0nJef-45">
          <mxGeometry x="480" y="40" width="240" height="100" as="geometry" />
        </mxCell>
        <mxCell id="HBmwAiEKgiXEF_s0nJef-71" value="set_assets" style="rounded=1;" vertex="1" parent="HBmwAiEKgiXEF_s0nJef-70">
          <mxGeometry x="40" y="40" width="160" height="40" as="geometry" />
        </mxCell>
        <mxCell id="HBmwAiEKgiXEF_s0nJef-82" value="assistantAPI" style="swimlane;whiteSpace=wrap;html=1;startSize=23;fillColor=#FFDA6A;strokeColor=#d6b656;" vertex="1" parent="HBmwAiEKgiXEF_s0nJef-70">
          <mxGeometry y="100" width="240" height="100" as="geometry" />
        </mxCell>
        <mxCell id="HBmwAiEKgiXEF_s0nJef-83" value="creationHandler" style="rounded=1;" vertex="1" parent="HBmwAiEKgiXEF_s0nJef-82">
          <mxGeometry x="40" y="40" width="160" height="40" as="geometry" />
        </mxCell>
        <mxCell id="HBmwAiEKgiXEF_s0nJef-72" value="" style="edgeStyle=orthogonalEdgeStyle;rounded=0;orthogonalLoop=1;jettySize=auto;html=1;startArrow=classic;startFill=1;entryX=0;entryY=0.5;entryDx=0;entryDy=0;exitX=1.005;exitY=0.291;exitDx=0;exitDy=0;exitPerimeter=0;strokeColor=#ff0000;" edge="1" parent="HBmwAiEKgiXEF_s0nJef-45" source="HBmwAiEKgiXEF_s0nJef-49" target="HBmwAiEKgiXEF_s0nJef-71">
          <mxGeometry relative="1" as="geometry">
            <mxPoint x="450" y="110" as="sourcePoint" />
            <Array as="points">
              <mxPoint x="470" y="129" />
              <mxPoint x="470" y="100" />
            </Array>
          </mxGeometry>
        </mxCell>
        <mxCell id="HBmwAiEKgiXEF_s0nJef-86" value="" style="endArrow=classic;html=1;rounded=0;exitX=1.003;exitY=0.699;exitDx=0;exitDy=0;entryX=0;entryY=0.5;entryDx=0;entryDy=0;startArrow=classic;startFill=1;exitPerimeter=0;strokeColor=#ff0000;" edge="1" parent="HBmwAiEKgiXEF_s0nJef-45" source="HBmwAiEKgiXEF_s0nJef-49" target="HBmwAiEKgiXEF_s0nJef-83">
          <mxGeometry width="50" height="50" relative="1" as="geometry">
            <mxPoint x="470" y="240" as="sourcePoint" />
            <mxPoint x="470" y="280" as="targetPoint" />
            <Array as="points">
              <mxPoint x="470" y="170" />
              <mxPoint x="470" y="200" />
            </Array>
          </mxGeometry>
        </mxCell>
        <mxCell id="HBmwAiEKgiXEF_s0nJef-89" value="threadsAPI" style="swimlane;whiteSpace=wrap;html=1;startSize=23;fillColor=#ffda6a;strokeColor=#d6b656;" vertex="1" parent="HBmwAiEKgiXEF_s0nJef-45">
          <mxGeometry x="240" y="240" width="240" height="100" as="geometry" />
        </mxCell>
        <mxCell id="HBmwAiEKgiXEF_s0nJef-90" value="threadCreationHandler" style="rounded=1;" vertex="1" parent="HBmwAiEKgiXEF_s0nJef-89">
          <mxGeometry x="40" y="40" width="160" height="40" as="geometry" />
        </mxCell>
        <mxCell id="HBmwAiEKgiXEF_s0nJef-97" style="edgeStyle=orthogonalEdgeStyle;rounded=0;orthogonalLoop=1;jettySize=auto;html=1;startArrow=classic;startFill=1;exitX=1;exitY=0.5;exitDx=0;exitDy=0;entryX=0;entryY=0.5;entryDx=0;entryDy=0;strokeColor=#ff0000;" edge="1" parent="HBmwAiEKgiXEF_s0nJef-45" source="HBmwAiEKgiXEF_s0nJef-47" target="HBmwAiEKgiXEF_s0nJef-90">
          <mxGeometry relative="1" as="geometry">
            <mxPoint x="200" y="163" as="sourcePoint" />
            <mxPoint x="280" y="300" as="targetPoint" />
            <Array as="points" />
          </mxGeometry>
        </mxCell>
        <mxCell id="HBmwAiEKgiXEF_s0nJef-98" value="messagesAPI" style="swimlane;whiteSpace=wrap;html=1;startSize=23;fillColor=#ffda6a;strokeColor=#d6b656;" vertex="1" parent="HBmwAiEKgiXEF_s0nJef-45">
          <mxGeometry x="240" y="340" width="240" height="100" as="geometry" />
        </mxCell>
        <mxCell id="HBmwAiEKgiXEF_s0nJef-99" value="messageCreationHandler" style="rounded=1;" vertex="1" parent="HBmwAiEKgiXEF_s0nJef-98">
          <mxGeometry x="40" y="40" width="160" height="40" as="geometry" />
        </mxCell>
        <mxCell id="HBmwAiEKgiXEF_s0nJef-102" value="runsAPI" style="swimlane;whiteSpace=wrap;html=1;startSize=23;fillColor=#ffda6a;strokeColor=#d6b656;" vertex="1" parent="HBmwAiEKgiXEF_s0nJef-45">
          <mxGeometry x="240" y="440" width="240" height="100" as="geometry" />
        </mxCell>
        <mxCell id="HBmwAiEKgiXEF_s0nJef-103" value="runCreationHandler" style="rounded=1;" vertex="1" parent="HBmwAiEKgiXEF_s0nJef-102">
          <mxGeometry x="40" y="40" width="160" height="40" as="geometry" />
        </mxCell>
        <mxCell id="HBmwAiEKgiXEF_s0nJef-106" style="edgeStyle=orthogonalEdgeStyle;rounded=0;orthogonalLoop=1;jettySize=auto;html=1;entryX=0;entryY=0.5;entryDx=0;entryDy=0;startArrow=classic;startFill=1;strokeColor=#ff0000;" edge="1" parent="HBmwAiEKgiXEF_s0nJef-45" target="HBmwAiEKgiXEF_s0nJef-99">
          <mxGeometry relative="1" as="geometry">
            <mxPoint x="201" y="360" as="sourcePoint" />
            <Array as="points">
              <mxPoint x="201" y="360" />
              <mxPoint x="220" y="360" />
              <mxPoint x="220" y="400" />
            </Array>
          </mxGeometry>
        </mxCell>
        <mxCell id="HBmwAiEKgiXEF_s0nJef-107" style="edgeStyle=orthogonalEdgeStyle;rounded=0;orthogonalLoop=1;jettySize=auto;html=1;exitX=0.75;exitY=1;exitDx=0;exitDy=0;entryX=0;entryY=0.5;entryDx=0;entryDy=0;startArrow=classic;startFill=1;strokeColor=#ff0000;" edge="1" parent="HBmwAiEKgiXEF_s0nJef-45" source="HBmwAiEKgiXEF_s0nJef-47" target="HBmwAiEKgiXEF_s0nJef-103">
          <mxGeometry relative="1" as="geometry">
            <Array as="points">
              <mxPoint x="160" y="500" />
            </Array>
          </mxGeometry>
        </mxCell>
        <mxCell id="HBmwAiEKgiXEF_s0nJef-88" style="edgeStyle=orthogonalEdgeStyle;rounded=0;orthogonalLoop=1;jettySize=auto;html=1;exitX=1;exitY=0.5;exitDx=0;exitDy=0;startArrow=classic;startFill=1;strokeColor=#ff0000;" edge="1" parent="1" source="HBmwAiEKgiXEF_s0nJef-58" target="HBmwAiEKgiXEF_s0nJef-47">
          <mxGeometry relative="1" as="geometry">
            <Array as="points">
              <mxPoint x="1250" y="450" />
              <mxPoint x="1250" y="450" />
            </Array>
          </mxGeometry>
        </mxCell>
        <mxCell id="HBmwAiEKgiXEF_s0nJef-120" value="System 1" style="edgeLabel;html=1;align=center;verticalAlign=middle;resizable=0;points=[];" vertex="1" connectable="0" parent="HBmwAiEKgiXEF_s0nJef-88">
          <mxGeometry x="-0.0618" relative="1" as="geometry">
            <mxPoint x="9" y="-10" as="offset" />
          </mxGeometry>
        </mxCell>
        <mxCell id="HBmwAiEKgiXEF_s0nJef-114" value="" style="edgeStyle=elbowEdgeStyle;elbow=horizontal;verticalAlign=bottom;endArrow=open;endSize=8;strokeColor=#FF0000;endFill=1;rounded=0;startArrow=open;startFill=0;entryX=0.55;entryY=0.95;entryDx=0;entryDy=0;entryPerimeter=0;" edge="1" parent="1" target="HBmwAiEKgiXEF_s0nJef-115">
          <mxGeometry as="geometry">
            <mxPoint x="1929.999999999999" y="240" as="targetPoint" />
            <mxPoint x="1640" y="120" as="sourcePoint" />
            <Array as="points">
              <mxPoint x="1640" y="80" />
            </Array>
          </mxGeometry>
        </mxCell>
        <mxCell id="HBmwAiEKgiXEF_s0nJef-115" value="OpenAI API" style="ellipse;shape=cloud;whiteSpace=wrap;html=1;fillColor=#f5f5f5;fontColor=#333333;strokeColor=#666666;" vertex="1" parent="1">
          <mxGeometry x="1530" y="-85" width="200" height="130" as="geometry" />
        </mxCell>
        <mxCell id="HBmwAiEKgiXEF_s0nJef-116" value="MongoDB" style="shape=cylinder3;whiteSpace=wrap;html=1;boundedLbl=1;backgroundOutline=1;size=15;fillColor=#e1d5e7;strokeColor=#9673a6;" vertex="1" parent="1">
          <mxGeometry x="771" y="-80" width="120" height="120" as="geometry" />
        </mxCell>
        <mxCell id="HBmwAiEKgiXEF_s0nJef-117" value="" style="edgeStyle=elbowEdgeStyle;elbow=horizontal;verticalAlign=bottom;endArrow=open;endSize=8;strokeColor=#FF0000;endFill=1;rounded=0;entryX=0.5;entryY=1;entryDx=0;entryDy=0;entryPerimeter=0;exitX=0.5;exitY=0;exitDx=0;exitDy=0;startArrow=open;startFill=0;" edge="1" parent="1" target="HBmwAiEKgiXEF_s0nJef-116">
          <mxGeometry x="1540" y="160" as="geometry">
            <mxPoint x="662" y="60" as="targetPoint" />
            <mxPoint x="831" y="120" as="sourcePoint" />
          </mxGeometry>
        </mxCell>
      </root>
    </mxGraphModel>
  </diagram>
</mxfile>
